<?xml version="1.0" encoding="utf-8"?>
<!-- Generator: Adobe Illustrator 18.1.1, SVG Export Plug-In . SVG Version: 6.00 Build 0)  -->
<svg version="1.1" id="Layer_1" xmlns="http://www.w3.org/2000/svg" xmlns:xlink="http://www.w3.org/1999/xlink" x="0px" y="0px"
	 width="64px" height="64px" viewBox="-47 -16 64 64" enable-background="new -47 -16 64 64" xml:space="preserve">
<path fill="#FFFFFF" d="M6.3-16h-42.7C-42.2-16-47-11.2-47-5.3v42.7c0,5.9,4.8,10.7,10.7,10.7H-15V20h-8v-8h8V6c0-5.5,4.5-10,10-10
	H5v8H-5c-1.1,0-2,0.9-2,2v6H4l-2,8h-9v28H6.3C12.2,48,17,43.2,17,37.3V-5.3C17-11.2,12.2-16,6.3-16L6.3-16z"/>
</svg>
