<?xml version="1.0" encoding="utf-8"?>
<!-- Generator: Adobe Illustrator 18.1.1, SVG Export Plug-In . SVG Version: 6.00 Build 0)  -->
<svg version="1.1" id="Layer_1" xmlns="http://www.w3.org/2000/svg" xmlns:xlink="http://www.w3.org/1999/xlink" x="0px" y="0px"
	 width="216px" height="216px" viewBox="0 0 216 216" enable-background="new 0 0 216 216" xml:space="preserve">
<g>
	<path fill="#FFFFFF" d="M150.2,99.4c-1.8-0.2-3.4,0.1-5.2,0.4c-0.2,0-0.3,0.1-0.3,0.2c-0.2,3.7-0.4,6.1-0.3,9.8
		c0,0.2,0.2,0.3,0.4,0.2c2-0.1,4.4-0.7,5.9-1.4c1-0.4,1.1-0.6,1.2-1.3c0.3-2,0-6-1.1-7.6C150.7,99.6,150.5,99.5,150.2,99.4z"/>
	<path fill="#FFFFFF" d="M108,36c-39.8,0-72,32.2-72,72s32.2,72,72,72c39.8,0,72-32.2,72-72S147.8,36,108,36z M100.1,61.1
		c0.4-1.6,1-1.6,2.8-1.8c4.2-0.3,9.2-0.2,13.8,0.1c0.2,0,0.2,0,0.2,0.2c0,0.1-0.6,2.3-0.9,3.2c0,0-0.1,0.2-0.3,0.2
		c-0.6,0-7.6,0-9.3,0.6c-0.8,0.3-1,0.6-1.2,1.9c-0.4,2.3-0.5,4-0.5,6c-0.1,2.4,0,4.9,0.9,7.3c0.3,0.8,1.3,1,2.1,1.1
		c1.3,0.1,1.6,0.2,3.1-0.1c0.3,0,0.3-0.2,0.3-0.4c0-0.3,0.4-9.6,0.4-9.6c0-0.1,0-0.2,0.2-0.2c0.1,0,4.2,0,4.3,0
		c0.2,0,0.2,0.1,0.2,0.2l-0.1,13.6c0,0.2-0.2,0.3-0.3,0.3h0c-3.7,0.2-9.6,0.2-12.6-0.1c-1.3-0.1-1.7-0.2-2.1-1.3
		c-1.4-3.7-1.8-7.7-1.8-13.4C99.2,67,99.5,63.3,100.1,61.1z M64,119.5c0,0-0.1,0.1-0.2,0.1h-4.1c-0.2,0-0.2-0.1-0.2-0.1
		c-0.2-5.1-0.2-18.9-0.4-24c0-0.1,0.1-0.2,0.3-0.2c0.2,0,4.7,0,4.8,0c0.2,0,0.2,0,0.2,0.2c0,0.1-0.2,14.2-0.2,14.2
		c2.4-0.1,3.9-0.2,5.8-1.1c0.5-0.3,0.9-0.5,1.1-1.2c0.5-2.1,1.1-5,1.3-11.9c0.1-0.2,0.2-0.2,0.2-0.2h4.8c0.2,0,0.3,0,0.3,0.2
		c-0.5,5.3-1.7,12.6-2.7,15.6c-0.3,0.9-0.3,0.9-1.3,1.4c-0.5,0.2-1.5,0.4-2,0.6l5,6c0,0,0.2,0.2,0,0.3c-0.1,0.1-3.7,1.1-4,1.1
		c-0.2,0-0.2-0.1-0.2-0.1l-5.7-6.6c0,0-1.5,0.2-2.4,0.2C64.1,116.1,64.1,117.5,64,119.5z M116.3,154.7c-0.2,0.9-0.3,1.5-1.3,1.8
		c-2.4,0.5-11.1,0.6-14,0c-1-0.2-1.1-0.5-1.4-1.5c-1.5-5.5-1.8-15.9-0.1-21.5c0.2-0.7,0.5-0.7,1.1-0.9c1.9-0.4,12.6-0.5,14.8,0
		c1,0.2,1.1,0.3,1.4,1.1C118.5,139.6,117.6,148.8,116.3,154.7z M149.5,147.4c-0.7,0.6-1.1,0.9-1.4,1c-3.9-3.6-6.8-6.2-8.6-8
		L108,110.7l-31.5,29.7c-1.9,1.8-4.7,4.4-8.6,7.9c-0.5,0-0.8-0.2-1.1-0.4c-0.2-0.2-0.4-0.5-0.7-0.9c-0.3-0.4-0.4-0.7-0.6-0.8
		c-0.2-0.2-0.4-0.3-0.5-0.3l0-0.4c2.1-1.8,4.6-4,7.4-6.6c0.7-0.7,18-17,32.6-30.8L73.6,78.3c-1.9-1.8-4.7-4.5-8.4-8.1
		c0.1-0.4,0.2-0.8,0.5-1c0.2-0.2,0.5-0.4,0.9-0.6c0.4-0.2,0.7-0.4,0.9-0.6c0.2-0.2,0.3-0.4,0.3-0.5l0.4,0c1.9,2,4.2,4.3,7,7
		c0.7,0.7,18.1,17.1,32.7,30.8c8.9-8.4,16.2-15.3,17.1-16.2c2.2-2.2,17.9-17,19-18.1c1.8-1.7,3.4-2.9,4.9-3.5
		c0.1,0.4,0.4,0.8,0.8,1.2c0.6,0.6,1,1,1.1,1.3c-3.8,3.7-6.6,6.4-8.5,8.1l-31.6,29.8c8.9,8.4,16.2,15.2,17.1,16
		c2.4,2.1,18.1,16.9,19.2,18c1.8,1.7,3,3.2,3.7,4.6C150.4,146.7,150,146.9,149.5,147.4z M156.7,119.5c-0.1,0-2.5,0.9-3.4,1.2
		c-0.1,0-0.3,0-0.4-0.1c-0.1-0.1-5.8-6.6-5.8-6.6c-0.4,0.1-0.6,0-2.6,0.4c-0.1,1.9-0.1,3.3-0.2,5.2c0,0-0.1,0.3-0.2,0.3h-3.9
		c-0.2,0-0.3-0.2-0.3-0.3c0,0-0.5-23.6-0.5-23.7c0-0.2,0.3-0.2,0.5-0.2c5.6-0.3,12-0.4,15.2,0.1c0.6,0.1,0.8,0.4,1.1,1.3
		c0.8,3.5,1.1,9.5,0.3,13.4c-0.1,0.6-0.1,1.1-0.8,1.4c-1.1,0.5-2.3,0.7-3.6,1c1.9,2.5,3.1,3.9,4.8,6.3
		C156.9,119.3,156.9,119.4,156.7,119.5z"/>
	<path fill="#FFFFFF" d="M110.8,136.7c-1-0.4-4-0.4-5.2-0.1c-0.8,0.3-1,0.4-1.3,1c-1.2,2.8-1.6,11.5,0.3,14.3
		c0.2,0.2,0.4,0.4,0.7,0.5c1.2,0.4,3.5,0.4,5,0.1c0.5-0.1,0.6-0.2,0.9-0.6c1.5-2.9,1.9-11.3,0.5-14.4
		C111.5,137,111.4,136.9,110.8,136.7z"/>
</g>
</svg>
