<?xml version="1.0" encoding="utf-8"?>
<!-- Generator: Adobe Illustrator 18.1.1, SVG Export Plug-In . SVG Version: 6.00 Build 0)  -->
<svg version="1.1" id="Layer_1" xmlns="http://www.w3.org/2000/svg" xmlns:xlink="http://www.w3.org/1999/xlink" x="0px" y="0px"
	 width="64px" height="64px" viewBox="-47 -16 64 64" enable-background="new -47 -16 64 64" xml:space="preserve">
<path fill="#FFFFFF" d="M6.3-16h-42.7C-42.2-16-47-11.2-47-5.3v42.7c0,5.9,4.8,10.7,10.7,10.7H6.3C12.2,48,17,43.2,17,37.3V-5.3
	C17-11.2,12.2-16,6.3-16z M0.9,7.8c0,0.4,0,0.7,0,1.1c0,10.8-8.3,23.3-23.3,23.3c-4.6,0-8.9-1.4-12.6-3.7c0.6,0.1,1.3,0.1,2,0.1
	c3.8,0,7.4-1.3,10.2-3.5c-3.6-0.1-6.6-2.4-7.7-5.7c0.5,0.1,1,0.1,1.5,0.1c0.7,0,1.5-0.1,2.2-0.3c-3.8-0.8-6.6-4.1-6.6-8
	c0,0,0-0.1,0-0.1c1.1,0.6,2.4,1,3.7,1c-2.2-1.5-3.7-4-3.7-6.8c0-1.5,0.4-2.9,1.1-4.1c4,5,10.1,8.2,16.9,8.6
	c-0.1-0.6-0.2-1.2-0.2-1.9c0-4.5,3.7-8.2,8.2-8.2c2.4,0,4.5,1,6,2.6c1.9-0.4,3.6-1.1,5.2-2C3.3,2.3,2,3.9,0.3,4.9
	C1.9,4.7,3.5,4.2,5,3.6C3.9,5.2,2.5,6.7,0.9,7.8z"/>
</svg>
